<svg version="1.1" id="Layer_1" xmlns="http://www.w3.org/2000/svg" xmlns:xlink="http://www.w3.org/1999/xlink" viewBox="0 0 460 460" xml:space="preserve" fill="#000000"><g id="SVGRepo_bgCarrier" stroke-width="0"></g><g id="SVGRepo_tracerCarrier" stroke-linecap="round" stroke-linejoin="round"></g><g id="SVGRepo_iconCarrier"> <g id="XMLID_1217_"> <path id="XMLID_1218_" style="fill:#121923;" d="M455.987,460H330.078l-20-101.425l20-101.425 C404.683,294,455.987,371.147,455.987,460z"></path> <polygon id="XMLID_1219_" style="fill:#DAE0E7;" points="300.078,257.149 320.078,358.575 300.078,460 230.159,460 220,293 272.091,257.149 "></polygon> <polygon id="XMLID_1220_" style="fill:#FFFFFF;" points="160.241,257.149 140.241,358.575 160.241,460 230.159,460 230,293 187.909,257.149 "></polygon> <polygon id="XMLID_1221_" style="fill:#2D79CC;" points="246.847,293 270.387,422.92 230,460 220,283 "></polygon> <polygon id="XMLID_1222_" style="fill:#3897FF;" points="213.153,293 189.613,422.92 230,460 230,283 "></polygon> <polygon id="XMLID_1223_" style="fill:#3897FF;" points="272.091,257.149 246.847,293 230,293 220,275.075 230,257.149 "></polygon> <polygon id="XMLID_1224_" style="fill:#8BC0FF;" points="187.909,257.149 213.153,293 230,293 230,257.149 "></polygon> <rect id="XMLID_1225_" x="300.078" y="257.149" style="fill:#233145;" width="30" height="202.851"></rect> <path id="XMLID_1226_" style="fill:#233145;" d="M4.013,460h125.909l20-101.425l-20-101.425C55.317,294,4.013,371.147,4.013,460z"></path> <rect id="XMLID_1227_" x="129.922" y="257.149" style="fill:#466289;" width="30" height="202.851"></rect> <polygon id="XMLID_1228_" style="fill:#FFB739;" points="230,0 220,188 339.756,168 359.167,51.5 305.333,75.333 "></polygon> <polygon id="XMLID_1229_" style="fill:#FFD488;" points="230,0 230,188 120.244,168 100.833,51.5 154.667,75.333 "></polygon> <polygon id="XMLID_1230_" style="fill:#FB992D;" points="230,228 329.759,228 339.756,168 230,168 200,198 "></polygon> <polygon id="XMLID_1231_" style="fill:#FFB739;" points="230,228 130.241,228 120.244,168 230,168 "></polygon> </g> </g></svg>